<svg width="48" height="48" viewBox="0 0 48 48" fill="none" xmlns="http://www.w3.org/2000/svg">
<path d="M36.6498 37.989C36.0221 38.4605 35.4258 38.9211 34.8506 39.3653C30.9574 42.3725 28.0298 44.6339 22.8309 44.4939C16.7916 44.3312 10.6517 41.4049 6.3915 37.2003C4.26534 35.1018 2.95629 33.08 2.23369 30.9143C1.51003 28.7455 1.36212 26.3955 1.61407 23.6206C2.11111 18.1462 4.72679 14.0011 8.95359 9.73591C13.2397 5.41087 16.4225 2.22935 22.4539 2.51816C28.5682 2.81094 34.8127 6.3213 39.6424 11.2378C44.4704 16.1525 47.0034 21.5448 46.4163 26.8389C46.1279 29.4398 44.9184 31.307 43.164 32.9856C41.9173 34.1783 40.4294 35.248 38.8094 36.4127C38.1112 36.9146 37.3884 37.4343 36.6498 37.989Z" stroke="#262627"/>
<path d="M17 21V18H30V21H25V34H22V21H17Z" fill="#262627"/>
</svg>
